solid 
   facet normal -4.545195e-01 -4.545195e-01 -7.660444e-01
      outer loop
         vertex -1.740000e+01 -2.400000e+00 4.000000e+01
         vertex -2.400000e+00 -2.400000e+00 3.110000e+01
         vertex -2.400000e+00 -1.740000e+01 4.000000e+01
      endloop
   endfacet
   facet normal -1.000000e+00 -0.000000e+00 -0.000000e+00
      outer loop
         vertex -2.400000e+00 -1.740000e+01 4.000000e+01
         vertex -2.400000e+00 -2.400000e+00 3.110000e+01
         vertex -2.400000e+00 -2.400000e+00 2.400000e+00
      endloop
   endfacet
   facet normal -1.000000e+00 0.000000e+00 0.000000e+00
      outer loop
         vertex -2.400000e+00 -8.240000e+01 2.400000e+00
         vertex -2.400000e+00 -8.240000e+01 3.110000e+01
         vertex -2.400000e+00 -6.740000e+01 4.000000e+01
      endloop
   endfacet
   facet normal -1.000000e+00 0.000000e+00 0.000000e+00
      outer loop
         vertex -2.400000e+00 -8.240000e+01 4.000000e+01
         vertex -2.400000e+00 -8.240000e+01 4.240000e+01
         vertex -2.400000e+00 -6.740000e+01 4.000000e+01
      endloop
   endfacet
   facet normal -1.000000e+00 0.000000e+00 0.000000e+00
      outer loop
         vertex -2.400000e+00 -2.400000e+00 4.000000e+01
         vertex -2.400000e+00 -1.740000e+01 4.000000e+01
         vertex -2.400000e+00 -2.400000e+00 4.240000e+01
      endloop
   endfacet
   facet normal -1.000000e+00 0.000000e+00 0.000000e+00
      outer loop
         vertex -2.400000e+00 -6.740000e+01 4.000000e+01
         vertex -2.400000e+00 -8.240000e+01 4.240000e+01
         vertex -2.400000e+00 -1.740000e+01 4.000000e+01
      endloop
   endfacet
   facet normal -1.000000e+00 -0.000000e+00 -0.000000e+00
      outer loop
         vertex -2.400000e+00 -6.740000e+01 4.000000e+01
         vertex -2.400000e+00 -1.740000e+01 4.000000e+01
         vertex -2.400000e+00 -2.400000e+00 2.400000e+00
      endloop
   endfacet
   facet normal -1.000000e+00 0.000000e+00 0.000000e+00
      outer loop
         vertex -2.400000e+00 -2.400000e+00 2.400000e+00
         vertex -2.400000e+00 -8.240000e+01 2.400000e+00
         vertex -2.400000e+00 -6.740000e+01 4.000000e+01
      endloop
   endfacet
   facet normal -1.000000e+00 0.000000e+00 0.000000e+00
      outer loop
         vertex -2.400000e+00 -2.400000e+00 4.240000e+01
         vertex -2.400000e+00 -1.740000e+01 4.000000e+01
         vertex -2.400000e+00 -8.240000e+01 4.240000e+01
      endloop
   endfacet
   facet normal -0.000000e+00 0.000000e+00 1.000000e+00
      outer loop
         vertex -2.400000e+00 -2.400000e+00 4.000000e+01
         vertex -1.740000e+01 -2.400000e+00 4.000000e+01
         vertex -2.400000e+00 -1.740000e+01 4.000000e+01
      endloop
   endfacet
   facet normal 0.000000e+00 -1.000000e+00 0.000000e+00
      outer loop
         vertex -1.324000e+02 -2.400000e+00 2.400000e+00
         vertex -2.400000e+00 -2.400000e+00 2.400000e+00
         vertex -1.174000e+02 -2.400000e+00 4.000000e+01
      endloop
   endfacet
   facet normal 0.000000e+00 -1.000000e+00 0.000000e+00
      outer loop
         vertex -2.400000e+00 -2.400000e+00 3.110000e+01
         vertex -1.740000e+01 -2.400000e+00 4.000000e+01
         vertex -2.400000e+00 -2.400000e+00 2.400000e+00
      endloop
   endfacet
   facet normal 0.000000e+00 -1.000000e+00 0.000000e+00
      outer loop
         vertex -2.400000e+00 -2.400000e+00 4.240000e+01
         vertex -1.324000e+02 -2.400000e+00 4.240000e+01
         vertex -1.174000e+02 -2.400000e+00 4.000000e+01
      endloop
   endfacet
   facet normal 0.000000e+00 -1.000000e+00 0.000000e+00
      outer loop
         vertex -1.324000e+02 -2.400000e+00 4.000000e+01
         vertex -1.174000e+02 -2.400000e+00 4.000000e+01
         vertex -1.324000e+02 -2.400000e+00 4.240000e+01
      endloop
   endfacet
   facet normal 0.000000e+00 -1.000000e+00 0.000000e+00
      outer loop
         vertex -1.324000e+02 -2.400000e+00 2.400000e+00
         vertex -1.174000e+02 -2.400000e+00 4.000000e+01
         vertex -1.324000e+02 -2.400000e+00 3.110000e+01
      endloop
   endfacet
   facet normal 0.000000e+00 -1.000000e+00 0.000000e+00
      outer loop
         vertex -1.740000e+01 -2.400000e+00 4.000000e+01
         vertex -2.400000e+00 -2.400000e+00 4.000000e+01
         vertex -2.400000e+00 -2.400000e+00 4.240000e+01
      endloop
   endfacet
   facet normal -0.000000e+00 -1.000000e+00 -0.000000e+00
      outer loop
         vertex -2.400000e+00 -2.400000e+00 2.400000e+00
         vertex -1.740000e+01 -2.400000e+00 4.000000e+01
         vertex -1.174000e+02 -2.400000e+00 4.000000e+01
      endloop
   endfacet
   facet normal 0.000000e+00 -1.000000e+00 0.000000e+00
      outer loop
         vertex -1.174000e+02 -2.400000e+00 4.000000e+01
         vertex -1.740000e+01 -2.400000e+00 4.000000e+01
         vertex -2.400000e+00 -2.400000e+00 4.240000e+01
      endloop
   endfacet
   facet normal 0.000000e+00 0.000000e+00 1.000000e+00
      outer loop
         vertex -1.324000e+02 -2.400000e+00 2.400000e+00
         vertex -1.324000e+02 -8.240000e+01 2.400000e+00
         vertex -2.400000e+00 -2.400000e+00 2.400000e+00
      endloop
   endfacet
   facet normal 0.000000e+00 0.000000e+00 1.000000e+00
      outer loop
         vertex -2.400000e+00 -8.240000e+01 2.400000e+00
         vertex -2.400000e+00 -2.400000e+00 2.400000e+00
         vertex -1.324000e+02 -8.240000e+01 2.400000e+00
      endloop
   endfacet
   facet normal 0.000000e+00 1.000000e+00 0.000000e+00
      outer loop
         vertex -2.400000e+00 -8.240000e+01 2.400000e+00
         vertex -1.324000e+02 -8.240000e+01 2.400000e+00
         vertex -1.174000e+02 -8.240000e+01 4.000000e+01
      endloop
   endfacet
   facet normal 0.000000e+00 1.000000e+00 0.000000e+00
      outer loop
         vertex -1.324000e+02 -8.240000e+01 3.110000e+01
         vertex -1.174000e+02 -8.240000e+01 4.000000e+01
         vertex -1.324000e+02 -8.240000e+01 2.400000e+00
      endloop
   endfacet
   facet normal 0.000000e+00 1.000000e+00 0.000000e+00
      outer loop
         vertex -1.324000e+02 -8.240000e+01 4.240000e+01
         vertex -2.400000e+00 -8.240000e+01 4.240000e+01
         vertex -1.174000e+02 -8.240000e+01 4.000000e+01
      endloop
   endfacet
   facet normal 0.000000e+00 1.000000e+00 0.000000e+00
      outer loop
         vertex -2.400000e+00 -8.240000e+01 4.000000e+01
         vertex -1.740000e+01 -8.240000e+01 4.000000e+01
         vertex -2.400000e+00 -8.240000e+01 4.240000e+01
      endloop
   endfacet
   facet normal -0.000000e+00 1.000000e+00 0.000000e+00
      outer loop
         vertex -2.400000e+00 -8.240000e+01 2.400000e+00
         vertex -1.174000e+02 -8.240000e+01 4.000000e+01
         vertex -1.740000e+01 -8.240000e+01 4.000000e+01
      endloop
   endfacet
   facet normal 0.000000e+00 1.000000e+00 0.000000e+00
      outer loop
         vertex -1.174000e+02 -8.240000e+01 4.000000e+01
         vertex -2.400000e+00 -8.240000e+01 4.240000e+01
         vertex -1.740000e+01 -8.240000e+01 4.000000e+01
      endloop
   endfacet
   facet normal 0.000000e+00 1.000000e+00 0.000000e+00
      outer loop
         vertex -1.174000e+02 -8.240000e+01 4.000000e+01
         vertex -1.324000e+02 -8.240000e+01 4.000000e+01
         vertex -1.324000e+02 -8.240000e+01 4.240000e+01
      endloop
   endfacet
   facet normal 0.000000e+00 1.000000e+00 -0.000000e+00
      outer loop
         vertex -2.400000e+00 -8.240000e+01 3.110000e+01
         vertex -2.400000e+00 -8.240000e+01 2.400000e+00
         vertex -1.740000e+01 -8.240000e+01 4.000000e+01
      endloop
   endfacet
   facet normal -4.545195e-01 4.545195e-01 -7.660444e-01
      outer loop
         vertex -2.400000e+00 -6.740000e+01 4.000000e+01
         vertex -2.400000e+00 -8.240000e+01 3.110000e+01
         vertex -1.740000e+01 -8.240000e+01 4.000000e+01
      endloop
   endfacet
   facet normal 0.000000e+00 -0.000000e+00 1.000000e+00
      outer loop
         vertex -1.740000e+01 -8.240000e+01 4.000000e+01
         vertex -2.400000e+00 -8.240000e+01 4.000000e+01
         vertex -2.400000e+00 -6.740000e+01 4.000000e+01
      endloop
   endfacet
   facet normal 0.000000e+00 0.000000e+00 1.000000e+00
      outer loop
         vertex -1.324000e+02 -2.400000e+00 4.240000e+01
         vertex -3.598483e-14 5.878305e-16 4.240000e+01
         vertex -1.348000e+02 1.421085e-14 4.240000e+01
      endloop
   endfacet
   facet normal 0.000000e+00 0.000000e+00 1.000000e+00
      outer loop
         vertex -1.324000e+02 -8.240000e+01 4.240000e+01
         vertex -1.348000e+02 -8.480000e+01 4.240000e+01
         vertex -1.528359e-14 -8.480000e+01 4.240000e+01
      endloop
   endfacet
   facet normal 0.000000e+00 0.000000e+00 1.000000e+00
      outer loop
         vertex -1.528359e-14 -8.480000e+01 4.240000e+01
         vertex -2.400000e+00 -8.240000e+01 4.240000e+01
         vertex -1.324000e+02 -8.240000e+01 4.240000e+01
      endloop
   endfacet
   facet normal 0.000000e+00 0.000000e+00 1.000000e+00
      outer loop
         vertex -3.598483e-14 5.878305e-16 4.240000e+01
         vertex -1.324000e+02 -2.400000e+00 4.240000e+01
         vertex -2.400000e+00 -2.400000e+00 4.240000e+01
      endloop
   endfacet
   facet normal 0.000000e+00 0.000000e+00 1.000000e+00
      outer loop
         vertex -1.348000e+02 -8.480000e+01 4.240000e+01
         vertex -1.324000e+02 -2.400000e+00 4.240000e+01
         vertex -1.348000e+02 1.421085e-14 4.240000e+01
      endloop
   endfacet
   facet normal 0.000000e+00 0.000000e+00 1.000000e+00
      outer loop
         vertex -2.400000e+00 -8.240000e+01 4.240000e+01
         vertex -3.598483e-14 5.878305e-16 4.240000e+01
         vertex -2.400000e+00 -2.400000e+00 4.240000e+01
      endloop
   endfacet
   facet normal 0.000000e+00 0.000000e+00 1.000000e+00
      outer loop
         vertex -2.400000e+00 -8.240000e+01 4.240000e+01
         vertex -1.528359e-14 -8.480000e+01 4.240000e+01
         vertex -3.598483e-14 5.878305e-16 4.240000e+01
      endloop
   endfacet
   facet normal 0.000000e+00 0.000000e+00 1.000000e+00
      outer loop
         vertex -1.324000e+02 -2.400000e+00 4.240000e+01
         vertex -1.348000e+02 -8.480000e+01 4.240000e+01
         vertex -1.324000e+02 -8.240000e+01 4.240000e+01
      endloop
   endfacet
   facet normal 1.000000e+00 0.000000e+00 0.000000e+00
      outer loop
         vertex -1.324000e+02 -8.240000e+01 2.400000e+00
         vertex -1.324000e+02 -2.400000e+00 2.400000e+00
         vertex -1.324000e+02 -1.740000e+01 4.000000e+01
      endloop
   endfacet
   facet normal 1.000000e+00 0.000000e+00 0.000000e+00
      outer loop
         vertex -1.324000e+02 -2.400000e+00 3.110000e+01
         vertex -1.324000e+02 -1.740000e+01 4.000000e+01
         vertex -1.324000e+02 -2.400000e+00 2.400000e+00
      endloop
   endfacet
   facet normal 1.000000e+00 -0.000000e+00 0.000000e+00
      outer loop
         vertex -1.324000e+02 -2.400000e+00 4.240000e+01
         vertex -1.324000e+02 -8.240000e+01 4.240000e+01
         vertex -1.324000e+02 -1.740000e+01 4.000000e+01
      endloop
   endfacet
   facet normal 1.000000e+00 0.000000e+00 0.000000e+00
      outer loop
         vertex -1.324000e+02 -8.240000e+01 4.000000e+01
         vertex -1.324000e+02 -6.740000e+01 4.000000e+01
         vertex -1.324000e+02 -8.240000e+01 4.240000e+01
      endloop
   endfacet
   facet normal 1.000000e+00 0.000000e+00 0.000000e+00
      outer loop
         vertex -1.324000e+02 -8.240000e+01 2.400000e+00
         vertex -1.324000e+02 -1.740000e+01 4.000000e+01
         vertex -1.324000e+02 -6.740000e+01 4.000000e+01
      endloop
   endfacet
   facet normal 1.000000e+00 0.000000e+00 0.000000e+00
      outer loop
         vertex -1.324000e+02 -1.740000e+01 4.000000e+01
         vertex -1.324000e+02 -8.240000e+01 4.240000e+01
         vertex -1.324000e+02 -6.740000e+01 4.000000e+01
      endloop
   endfacet
   facet normal 1.000000e+00 0.000000e+00 -0.000000e+00
      outer loop
         vertex -1.324000e+02 -1.740000e+01 4.000000e+01
         vertex -1.324000e+02 -2.400000e+00 4.000000e+01
         vertex -1.324000e+02 -2.400000e+00 4.240000e+01
      endloop
   endfacet
   facet normal 1.000000e+00 0.000000e+00 0.000000e+00
      outer loop
         vertex -1.324000e+02 -8.240000e+01 3.110000e+01
         vertex -1.324000e+02 -8.240000e+01 2.400000e+00
         vertex -1.324000e+02 -6.740000e+01 4.000000e+01
      endloop
   endfacet
   facet normal 0.000000e+00 0.000000e+00 1.000000e+00
      outer loop
         vertex -1.324000e+02 -2.400000e+00 4.000000e+01
         vertex -1.324000e+02 -1.740000e+01 4.000000e+01
         vertex -1.174000e+02 -2.400000e+00 4.000000e+01
      endloop
   endfacet
   facet normal 4.545197e-01 -4.545194e-01 -7.660443e-01
      outer loop
         vertex -1.324000e+02 -1.740000e+01 4.000000e+01
         vertex -1.324000e+02 -2.400000e+00 3.110000e+01
         vertex -1.174000e+02 -2.400000e+00 4.000000e+01
      endloop
   endfacet
   facet normal 4.545197e-01 4.545194e-01 -7.660444e-01
      outer loop
         vertex -1.174000e+02 -8.240000e+01 4.000000e+01
         vertex -1.324000e+02 -8.240000e+01 3.110000e+01
         vertex -1.324000e+02 -6.740000e+01 4.000000e+01
      endloop
   endfacet
   facet normal 0.000000e+00 0.000000e+00 1.000000e+00
      outer loop
         vertex -1.324000e+02 -8.240000e+01 4.000000e+01
         vertex -1.174000e+02 -8.240000e+01 4.000000e+01
         vertex -1.324000e+02 -6.740000e+01 4.000000e+01
      endloop
   endfacet
   facet normal -1.000000e+00 0.000000e+00 0.000000e+00
      outer loop
         vertex -1.348000e+02 1.421085e-14 4.240000e+01
         vertex -1.348000e+02 1.650824e-14 0.000000e+00
         vertex -1.348000e+02 -8.480000e+01 0.000000e+00
      endloop
   endfacet
   facet normal -1.000000e+00 -0.000000e+00 0.000000e+00
      outer loop
         vertex -1.348000e+02 -8.480000e+01 4.240000e+01
         vertex -1.348000e+02 1.421085e-14 4.240000e+01
         vertex -1.348000e+02 -8.480000e+01 0.000000e+00
      endloop
   endfacet
   facet normal 0.000000e+00 -1.000000e+00 0.000000e+00
      outer loop
         vertex -1.348000e+02 -8.480000e+01 4.240000e+01
         vertex -1.348000e+02 -8.480000e+01 0.000000e+00
         vertex -1.528359e-14 -8.480000e+01 4.240000e+01
      endloop
   endfacet
   facet normal 0.000000e+00 -1.000000e+00 -0.000000e+00
      outer loop
         vertex -1.038501e-14 -8.480000e+01 0.000000e+00
         vertex -1.528359e-14 -8.480000e+01 4.240000e+01
         vertex -1.348000e+02 -8.480000e+01 0.000000e+00
      endloop
   endfacet
   facet normal 1.000000e+00 -1.224647e-16 1.155327e-16
      outer loop
         vertex -1.528359e-14 -8.480000e+01 4.240000e+01
         vertex -1.038501e-14 -8.480000e+01 0.000000e+00
         vertex 0.000000e+00 0.000000e+00 0.000000e+00
      endloop
   endfacet
   facet normal 1.000000e+00 2.441184e-16 8.486989e-16
      outer loop
         vertex -3.598483e-14 5.878305e-16 4.240000e+01
         vertex -1.528359e-14 -8.480000e+01 4.240000e+01
         vertex 0.000000e+00 0.000000e+00 0.000000e+00
      endloop
   endfacet
   facet normal 1.224647e-16 1.000000e+00 -1.386393e-17
      outer loop
         vertex -3.598483e-14 5.878305e-16 4.240000e+01
         vertex 0.000000e+00 0.000000e+00 0.000000e+00
         vertex -1.348000e+02 1.650824e-14 0.000000e+00
      endloop
   endfacet
   facet normal 1.010610e-16 1.000000e+00 5.418358e-17
      outer loop
         vertex -1.348000e+02 1.421085e-14 4.240000e+01
         vertex -3.598483e-14 5.878305e-16 4.240000e+01
         vertex -1.348000e+02 1.650824e-14 0.000000e+00
      endloop
   endfacet
   facet normal 0.000000e+00 0.000000e+00 -1.000000e+00
      outer loop
         vertex -1.038501e-14 -8.480000e+01 0.000000e+00
         vertex -1.348000e+02 -8.480000e+01 0.000000e+00
         vertex -1.348000e+02 1.650824e-14 0.000000e+00
      endloop
   endfacet
   facet normal 0.000000e+00 0.000000e+00 -1.000000e+00
      outer loop
         vertex -1.038501e-14 -8.480000e+01 0.000000e+00
         vertex -1.348000e+02 1.650824e-14 0.000000e+00
         vertex 0.000000e+00 0.000000e+00 0.000000e+00
      endloop
   endfacet
endsolid
